<svg xmlns="http://www.w3.org/2000/svg" width="353" height="71">
  <g fill="none" fill-rule="evenodd">
    <path fill="#FFF" d="M321.78 0l31.14 17.6v35.24l-31.14 17.63-31.14-17.63V17.6"/>
    <path fill="#8ED6FB" d="M347.35 51.63l-24.54 13.9V54.7l15.3-8.4 9.25 5.33zm1.68-1.5V21.06l-8.97 5.18v18.68l8.97 5.2zm-52.93 1.5l24.55 13.9V54.7l-15.3-8.4-9.25 5.33zm-1.68-1.5V21.06l8.98 5.18v18.68l-8.98 5.2zm1.05-30.94l25.18-14.25V15.4l-16.14 8.88-.12.07-8.9-5.16zm52.5 0L322.82 4.94V15.4l16.13 8.88.13.07 8.92-5.16z"/>
    <path fill="#1C78C0" d="M320.65 52.24l-15.1-8.3V27.52l15.1 8.7v16.04zm2.16 0l15.1-8.3V27.52l-15.1 8.7v16.04zM306.58 25.6l15.16-8.33 15.14 8.33-15.14 8.75-15.16-8.75z"/>
    <path fill="#007ACC" d="M216 34.5V63h57V6h-57v28.5zm45.93-2.27c1.45.36 2.56 1 3.57 2.05.52.56 1.3 1.6 1.37 1.83 0 .08-2.47 1.75-3.97 2.68-.05.04-.27-.2-.5-.56-.75-1.07-1.5-1.53-2.7-1.6-1.72-.13-2.83.78-2.82 2.3 0 .43.06.7.24 1.05.38.8 1.1 1.26 3.3 2.22 4.08 1.75 5.83 2.9 6.92 4.55 1.2 1.84 1.48 4.77.66 6.95-.9 2.37-3.15 3.98-6.3 4.5-1 .2-3.3.16-4.35-.03-2.3-.4-4.46-1.54-5.8-3.02-.53-.58-1.55-2.1-1.5-2.2.04-.04.28-.18.54-.34l2.1-1.2 1.64-.96.35.5c.47.74 1.52 1.75 2.15 2.08 1.82.96 4.32.82 5.55-.28.52-.48.74-.98.74-1.7 0-.67-.08-.96-.43-1.46-.43-.63-1.34-1.16-3.9-2.28-2.95-1.26-4.2-2.05-5.37-3.3-.67-.72-1.3-1.88-1.57-2.85-.2-.8-.27-2.82-.1-3.64.6-2.83 2.76-4.8 5.85-5.4 1-.2 3.35-.12 4.33.13zm-13.38 2.38l.02 2.34h-7.42v21.08h-5.25V36.94h-7.4v-2.3c0-1.25 0-2.3.05-2.34.03-.03 4.54-.05 10-.04l9.98.02.02 2.33z"/>
    <g fill="#764ABC">
      <path d="M180.38 46.5c2-.2 3.52-1.92 3.45-3.98-.07-2.06-1.8-3.7-3.87-3.7h-.13c-2.15.06-3.8 1.84-3.73 3.97.07 1.02.48 1.92 1.1 2.54-2.35 4.6-5.94 7.97-11.32 10.8-3.66 1.9-7.46 2.6-11.26 2.12-3.1-.4-5.52-1.8-7.04-4.06-2.2-3.36-2.42-7-.56-10.65 1.32-2.6 3.4-4.54 4.7-5.5-.28-.9-.7-2.4-.9-3.5-10 7.2-8.97 16.97-5.94 21.58 2.28 3.44 6.9 5.57 12.02 5.57 1.38 0 2.76-.14 4.14-.5 8.84-1.7 15.54-6.93 19.34-14.7z"/>
      <path d="M192.53 37.98c-5.25-6.12-12.98-9.48-21.82-9.48h-1.1c-.62-1.24-1.93-2.07-3.38-2.07h-.14c-2.14.07-3.8 1.86-3.73 4 .07 2.05 1.8 3.7 3.87 3.7h.14c1.52-.07 2.83-1.03 3.38-2.33H171c5.23 0 10.2 1.5 14.7 4.46 3.45 2.27 5.93 5.23 7.3 8.8 1.2 2.9 1.12 5.7-.12 8.1-1.94 3.66-5.18 5.65-9.46 5.65-2.77 0-5.4-.82-6.77-1.43-.76.68-2.14 1.78-3.1 2.47 2.96 1.37 6 2.13 8.9 2.13 6.63 0 11.53-3.64 13.4-7.3 2-3.97 1.86-10.85-3.32-16.7z"/>
      <path d="M157.45 47.67c.07 2.07 1.8 3.72 3.87 3.72h.14c2.14-.08 3.8-1.87 3.73-4-.08-2.06-1.8-3.7-3.88-3.7h-.14c-.14 0-.34 0-.48.06-2.83-4.68-4-9.76-3.6-15.26.28-4.13 1.66-7.7 4.08-10.66 2-2.54 5.87-3.78 8.5-3.85 7.3-.14 10.42 8.93 10.63 12.57.9.2 2.43.7 3.46 1.03-.83-11.13-7.73-16.9-14.36-16.9-6.22 0-11.95 4.46-14.23 11.06-3.17 8.8-1.1 17.25 2.77 23.92-.35.48-.56 1.24-.5 2z"/>
    </g>
    <g fill="#00D8FF" transform="translate(67 8.882)">
      <ellipse cx="30.79" cy="27.22" rx="5.5" ry="5.47"/>
      <path fill-rule="nonzero" d="M49.77 20.16c5.7 1.95 9.17 4.84 9.17 7.06 0 2.37-3.75 5.44-9.84 7.45-4.85 1.6-11.34 2.48-18.3 2.48-7.32 0-13.88-.86-18.68-2.5-3-1-5.47-2.34-7.17-3.8-1.53-1.3-2.3-2.58-2.3-3.63 0-2.23 3.34-5.07 8.9-7 5.14-1.8 12.05-2.8 19.24-2.8 7.1 0 13.84.98 18.97 2.74zM10.7 17.74C4.18 20 .02 23.54.02 27.22c0 3.8 4.47 7.6 11.25 9.92 5.1 1.73 11.94 2.62 19.52 2.62 7.22 0 13.98-.9 19.12-2.6 7.06-2.33 11.65-6.1 11.65-9.94 0-3.7-4.3-7.26-10.94-9.53-5.42-1.87-12.46-2.9-19.84-2.9-7.47 0-14.67 1.06-20.1 2.94z"/>
      <path fill-rule="nonzero" d="M34.08 7.36c4.55-3.94 8.8-5.5 10.73-4.38 2.07 1.18 2.87 5.96 1.58 12.2-1.04 5-3.52 11.02-7 17.03-3.65 6.3-7.67 11.54-11.5 14.86-2.37 2.08-4.77 3.56-6.88 4.3-1.9.66-3.4.68-4.3.16-1.96-1.12-2.76-5.42-1.66-11.2 1-5.3 3.57-11.77 7.17-17.97 3.55-6.13 7.8-11.45 11.88-15zM12.46 39.84c-1.3 6.75-.3 12.1 2.9 13.95 3.32 1.88 8.86-.07 14.26-4.77 4.06-3.53 8.25-8.98 12.04-15.52 3.6-6.2 6.2-12.5 7.3-17.78 1.5-7.25.5-13.08-2.84-15-3.2-1.85-8.46.07-13.76 4.67-4.33 3.73-8.75 9.28-12.43 15.64-3.73 6.44-6.4 13.18-7.47 18.8z"/>
      <path fill-rule="nonzero" d="M15.1 14.5c-1.16-5.9-.4-10.33 1.55-11.44 2.05-1.2 6.6.5 11.4 4.75 3.83 3.38 7.84 8.54 11.33 14.53 3.66 6.3 6.2 12.38 7.2 17.33.6 3.1.7 5.9.28 8.1-.36 1.95-1.1 3.26-2 3.8-1.95 1.1-6.1-.35-10.57-4.18-4.13-3.52-8.48-8.97-12.1-15.16-3.54-6.12-6.06-12.43-7.1-17.72zm17.47 34.87c5.23 4.48 10.4 6.3 13.6 4.44 3.3-1.9 4.37-7.64 2.98-14.65-1.05-5.26-3.7-11.6-7.5-18.13-3.62-6.22-7.8-11.6-11.85-15.17C24.24.95 18.67-1.13 15.33.8c-3.2 1.84-4.16 7.33-2.8 14.2 1.1 5.6 3.7 12.18 7.4 18.53 3.75 6.44 8.3 12.1 12.64 15.84z"/>
    </g>
    <g fill="#47848F" fill-rule="nonzero">
      <path d="M19.06 20.45c-7.44-1.35-13.32.06-15.66 4.1-1.75 3.03-1.25 7.03 1.2 11.3.22.37.68.5 1.05.3.37-.22.5-.68.28-1.05-2.2-3.85-2.65-7.3-1.2-9.78 1.93-3.36 7.18-4.62 14.05-3.37.42.07.82-.2.9-.6.07-.43-.2-.82-.62-.9zM8.48 41.05c3 3.3 6.9 6.4 11.37 8.95 10.78 6.2 22.27 7.87 27.93 4.02.35-.23.44-.7.2-1.05-.24-.35-.7-.44-1.06-.2-5.07 3.44-15.98 1.87-26.3-4.08-4.33-2.5-8.12-5.5-11.02-8.66-.28-.3-.76-.34-1.07-.05-.3.27-.34.75-.05 1.06z"/>
      <path d="M45.97 40.13c4.87-5.73 6.57-11.5 4.23-15.53-1.72-2.97-5.36-4.54-10.2-4.6-.4 0-.76.33-.76.75s.33.76.75.77c4.34.05 7.47 1.4 8.88 3.84 1.95 3.35.43 8.5-4.07 13.8-.26.3-.22.8.1 1.06.32.27.8.23 1.07-.1zM33.47 20.7c-4.4.94-9.1 2.78-13.6 5.37-11.14 6.4-18.4 15.86-17.4 22.7.07.43.45.7.87.65.42-.06.7-.45.65-.86-.9-6.08 5.98-15.04 16.63-21.17 4.37-2.52 8.9-4.3 13.15-5.2.4-.1.67-.5.58-.9-.08-.42-.5-.68-.9-.6z"/>
      <path d="M15.42 53.53c2.54 7.08 6.7 11.45 11.4 11.45 3.4 0 6.57-2.32 9.03-6.4.22-.37.1-.84-.26-1.05-.37-.22-.84-.1-1.06.26-2.2 3.66-4.93 5.66-7.73 5.66-3.88 0-7.6-3.9-9.95-10.44-.14-.4-.58-.6-.97-.46-.4.14-.6.57-.46.97zm23.25-1.4C40 47.96 40.7 43.1 40.7 38.07c0-12.6-4.42-23.45-10.72-26.23-.4-.17-.84 0-1 .38-.18.4 0 .85.38 1.02 5.62 2.48 9.8 12.78 9.8 24.84 0 4.9-.67 9.58-1.94 13.63-.13.4.1.82.5.94.4.13.83-.1.95-.5zM53.03 51.4c0-2-1.63-3.64-3.65-3.64-2 0-3.65 1.63-3.65 3.64 0 2 1.64 3.64 3.65 3.64 2.02 0 3.65-1.63 3.65-3.64zm-1.52 0c0 1.17-.94 2.12-2.12 2.12-1.17 0-2.12-.95-2.12-2.12 0-1.17.95-2.12 2.12-2.12 1.18 0 2.13.95 2.13 2.12zM4.2 55.04c2 0 3.64-1.63 3.64-3.64 0-2-1.64-3.64-3.65-3.64-2.03 0-3.66 1.63-3.66 3.64 0 2 1.63 3.64 3.65 3.64zm0-1.52c-1.2 0-2.14-.95-2.14-2.12 0-1.17.95-2.12 2.13-2.12 1.16 0 2.1.95 2.1 2.12 0 1.17-.94 2.12-2.1 2.12z"/>
      <path d="M26.8 15.54c2.03 0 3.66-1.63 3.66-3.64 0-2-1.63-3.64-3.65-3.64-2 0-3.64 1.63-3.64 3.64 0 2 1.64 3.64 3.65 3.64zm0-1.52c-1.16 0-2.1-.95-2.1-2.12 0-1.17.94-2.12 2.1-2.12 1.18 0 2.14.95 2.14 2.12 0 1.17-.96 2.12-2.13 2.12zM27.37 40.63c-1.43.3-2.83-.6-3.14-2.02-.3-1.4.6-2.8 2.02-3.1 1.43-.32 2.83.58 3.14 2 .3 1.42-.6 2.82-2.03 3.13z"/>
    </g>
  </g>
</svg>
