<svg xmlns="http://www.w3.org/2000/svg" width="249" height="191">
  <defs>
    <linearGradient id="a" x1="20.58%" x2="65.85%" y1="2.47%" y2="92.63%">
      <stop stop-color="#292E3A" offset="0%"/>
      <stop offset="100%"/>
    </linearGradient>
    <linearGradient id="b" x1="36.93%" x2="30.44%" y1="-55.87%" y2="136.54%">
      <stop stop-color="#29333D" offset="0%"/>
      <stop offset="100%"/>
    </linearGradient>
  </defs>
  <g fill="none" fill-rule="evenodd">
    <path fill="url(#a)" d="M53.72 0l8.38 116.88H0L8.38 0" transform="translate(92.912)"/>
    <path fill="url(#b)" d="M53.72 118l8.38 10.33H0L8.38 118" transform="matrix(1 0 0 -1 92.912 246.333)"/>
    <path fill="#000" d="M20.52 154.5c-.7-.87-1.6-1.57-2.7-2.08-1.12-.52-2.2-.78-3.23-.78-.55 0-1.1.05-1.64.14-.55.1-1.04.27-1.48.54-.44.27-.8.6-1.1 1.04-.3.42-.45.96-.45 1.62 0 .57.1 1.04.35 1.4.23.4.58.72 1.04 1 .45.28 1 .54 1.62.78.63.23 1.33.48 2.12.73 1.13.37 2.3.78 3.53 1.24 1.2.45 2.33 1.06 3.33 1.8 1 .76 1.84 1.7 2.5 2.8.66 1.12 1 2.5 1 4.18 0 1.9-.37 3.57-1.07 4.96-.7 1.4-1.66 2.55-2.85 3.46-1.18.9-2.55 1.6-4.1 2.03-1.53.44-3.1.66-4.74.66-2.4 0-4.7-.42-6.92-1.25-2.23-.83-4.08-2.02-5.56-3.55l5.27-5.37c.82 1 1.9 1.84 3.23 2.52 1.33.67 2.66 1 3.98 1 .6 0 1.17-.05 1.74-.18.56-.12 1.06-.33 1.48-.6.43-.3.76-.67 1-1.14.27-.47.4-1.04.4-1.7 0-.62-.17-1.16-.48-1.6-.3-.44-.76-.84-1.34-1.2-.58-.36-1.3-.7-2.17-1l-2.95-.95c-1.07-.34-2.1-.74-3.13-1.2-1.02-.5-1.93-1.1-2.73-1.83s-1.46-1.63-1.94-2.68c-.5-1.06-.73-2.34-.73-3.85 0-1.85.38-3.43 1.13-4.75.75-1.32 1.74-2.4 2.96-3.25 1.23-.85 2.6-1.47 4.15-1.86 1.54-.4 3.1-.6 4.66-.6 1.88 0 3.8.35 5.77 1.04 1.96.7 3.68 1.7 5.15 3.06l-5.13 5.4zm23.3 24.68v-3.25h-.1c-.28.54-.65 1.04-1.1 1.5-.46.48-1 .9-1.6 1.23-.6.35-1.3.63-2.03.85-.74.23-1.52.34-2.34.34-1.57 0-2.9-.28-3.98-.85s-1.96-1.3-2.63-2.2c-.68-.9-1.16-1.9-1.46-3.06-.3-1.14-.46-2.3-.46-3.5v-14.5h7.77v12.7c0 .67.06 1.3.15 1.9.1.6.28 1.12.54 1.6.26.46.6.83 1.05 1.1.44.26 1.02.4 1.74.4 1.34 0 2.37-.5 3.08-1.5.7-1 1.06-2.2 1.06-3.54v-12.67h7.72v23.45h-7.44zm37.6-11.82c0 1.64-.24 3.2-.74 4.7-.5 1.52-1.23 2.84-2.2 4-.95 1.14-2.12 2.05-3.5 2.74-1.38.7-2.95 1.04-4.7 1.04-1.45 0-2.82-.3-4.1-.87-1.3-.58-2.3-1.37-3.02-2.38h-.1v13.88h-7.7v-34.75h7.33v2.88h.13c.73-.94 1.72-1.76 3-2.47 1.27-.7 2.76-1.05 4.5-1.05 1.7 0 3.22.32 4.6.98 1.4.66 2.55 1.56 3.5 2.7.97 1.12 1.7 2.43 2.22 3.92.52 1.5.78 3.05.78 4.68zm-7.47 0c0-.75-.12-1.5-.36-2.2-.24-.73-.6-1.37-1.04-1.92-.46-.55-1.03-1-1.72-1.34-.7-.34-1.5-.52-2.4-.52-.88 0-1.67.18-2.36.52-.7.35-1.28.8-1.76 1.37-.5.56-.87 1.2-1.13 1.93-.28.72-.4 1.46-.4 2.2 0 .76.12 1.5.4 2.22.25.73.63 1.37 1.12 1.93.48.57 1.07 1.02 1.76 1.37.7.34 1.48.52 2.36.52.9 0 1.7-.18 2.4-.52.7-.35 1.26-.8 1.72-1.37.45-.56.8-1.2 1.03-1.95.23-.74.35-1.48.35-2.24zm26.54-2.6c0-1.2-.4-2.26-1.16-3.14-.77-.88-1.92-1.32-3.46-1.32-.75 0-1.44.12-2.07.35-.62.24-1.17.56-1.64.97-.47.4-.85.9-1.13 1.44-.28.54-.44 1.12-.47 1.7h9.93zm7.1 2.98v.94c0 .32 0 .6-.04.9h-17c.06.66.26 1.25.6 1.8.32.52.74.98 1.26 1.37.52.4 1.1.7 1.74.92.65.22 1.3.33 2 .33 1.23 0 2.26-.23 3.1-.68.86-.46 1.55-1.04 2.08-1.77l5.37 3.4c-1.1 1.6-2.54 2.83-4.35 3.7-1.8.85-3.9 1.28-6.28 1.28-1.76 0-3.42-.27-5-.82-1.56-.54-2.93-1.34-4.1-2.4-1.2-1.04-2.1-2.34-2.8-3.88-.66-1.53-1-3.3-1-5.27 0-1.9.33-3.65 1-5.2.65-1.55 1.54-2.87 2.67-3.96 1.13-1.1 2.46-1.93 4-2.52 1.54-.6 3.2-.9 5-.9 1.72 0 3.3.3 4.75.87 1.43.58 2.67 1.42 3.7 2.52 1.04 1.1 1.85 2.43 2.43 4 .58 1.57.87 3.36.87 5.37zm18.08-5.7c-.35-.1-.7-.15-1.02-.2l-.96-.03c-1.04 0-1.9.2-2.6.57-.72.38-1.28.83-1.7 1.37-.43.53-.74 1.1-.93 1.74-.18.63-.28 1.18-.28 1.65v12.05h-7.73v-23.45h7.44v3.4h.1c.6-1.2 1.45-2.17 2.55-2.92 1.1-.75 2.36-1.12 3.8-1.12.32 0 .63 0 .93.04.3.03.54.08.73.14l-.32 6.78zm23.1 17.14l-13.4-21.8h-.15l.2 21.8h-7.83v-33.33h9.18l13.37 21.75h.14l-.2-21.75h7.82v33.33h-9.13zm38.52-11.82c0 1.92-.35 3.65-1.04 5.2-.7 1.56-1.63 2.88-2.83 3.96-1.2 1.08-2.57 1.92-4.14 2.52-1.58.6-3.26.9-5.05.9-1.75 0-3.43-.3-5-.9-1.6-.6-2.98-1.44-4.15-2.52-1.18-1.08-2.1-2.4-2.8-3.95-.7-1.56-1.04-3.3-1.04-5.2 0-1.92.34-3.65 1.04-5.2.7-1.52 1.62-2.83 2.8-3.9 1.17-1.06 2.55-1.88 4.14-2.44 1.58-.57 3.26-.85 5-.85 1.8 0 3.48.28 5.05.85 1.56.56 2.94 1.38 4.13 2.45 1.2 1.06 2.14 2.37 2.83 3.9.7 1.54 1.04 3.27 1.04 5.18zm-7.44 0c0-.75-.13-1.5-.38-2.2-.25-.73-.6-1.37-1.08-1.92-.47-.55-1.05-1-1.75-1.34-.7-.34-1.5-.52-2.4-.52-.9 0-1.7.18-2.4.52-.7.35-1.26.8-1.72 1.34-.45.55-.8 1.2-1.03 1.9-.24.73-.35 1.47-.35 2.22 0 .76.1 1.5.35 2.22.23.72.6 1.37 1.06 1.95.47.58 1.05 1.04 1.74 1.4.7.33 1.5.5 2.4.5.9 0 1.7-.17 2.4-.5.7-.36 1.27-.82 1.74-1.4s.83-1.23 1.06-1.95c.24-.73.36-1.46.36-2.22zm24.9 11.82h-8.34l-9.22-23.45h8.52l4.94 15.2h.14l4.95-15.2h8.23l-9.22 23.45zm24.1-10.22h-1c-.84 0-1.7.04-2.56.12-.86.08-1.63.23-2.3.45-.68.22-1.24.54-1.68.96-.44.42-.66.98-.66 1.67 0 .44.1.8.3 1.13.22.3.47.56.8.75.3.2.66.32 1.07.4.4.08.8.12 1.18.12 1.58 0 2.78-.43 3.6-1.3.84-.86 1.26-2.03 1.26-3.5v-.8zm-14.17-10.02c1.37-1.32 2.98-2.3 4.8-2.97 1.85-.66 3.72-1 5.64-1 1.98 0 3.65.25 5 .74 1.38.5 2.48 1.25 3.33 2.27.85 1.02 1.47 2.3 1.86 3.86.4 1.56.6 3.4.6 5.53v11.82h-7.07v-2.5h-.14c-.6.98-1.5 1.73-2.7 2.27-1.22.53-2.53.8-3.94.8-.94 0-1.92-.13-2.92-.38s-1.92-.66-2.76-1.23c-.83-.56-1.5-1.3-2.04-2.26-.54-.94-.8-2.1-.8-3.48 0-1.7.46-3.06 1.38-4.1.93-1.03 2.12-1.83 3.58-2.4 1.46-.56 3.1-.94 4.88-1.13 1.78-.18 3.53-.28 5.22-.28v-.4c0-1.15-.4-2-1.22-2.55-.82-.55-1.82-.83-3.02-.83-1.1 0-2.15.24-3.17.7-1 .48-1.88 1.05-2.6 1.7l-3.9-4.18zm33.83 16.1c0 1.32-.46 2.4-1.4 3.3-.9.87-2.02 1.3-3.3 1.3-.67 0-1.3-.1-1.87-.34-.58-.24-1.1-.56-1.53-.97-.44-.4-.78-.88-1.03-1.43-.25-.55-.38-1.16-.38-1.82 0-.62.13-1.22.38-1.78.25-.57.6-1.06 1.03-1.5.44-.4.95-.75 1.53-1 .58-.25 1.2-.38 1.86-.38 1.3 0 2.4.44 3.32 1.32.93.88 1.4 1.98 1.4 3.3z"/>
  </g>
</svg>
